<svg width="28" height="28" viewBox="0 0 28 28" fill="none" xmlns="http://www.w3.org/2000/svg">
<rect x="1" y="1" width="26" height="26" rx="13" fill="#F9FAFB"/>
<path d="M9.92188 16.5341V10.7727H11.0682V16.5341H9.92188ZM7.61648 14.2244V13.0824H13.3778V14.2244H7.61648ZM14.9801 18V17.0455L17.9332 13.9858C18.2486 13.6534 18.5085 13.3622 18.7131 13.1122C18.9205 12.8594 19.0753 12.6193 19.1776 12.392C19.2798 12.1648 19.331 11.9233 19.331 11.6676C19.331 11.3778 19.2628 11.1278 19.1264 10.9176C18.9901 10.7045 18.804 10.5412 18.5682 10.4276C18.3324 10.3111 18.0668 10.2528 17.7713 10.2528C17.4588 10.2528 17.1861 10.3168 16.9531 10.4446C16.7202 10.5724 16.5412 10.7528 16.4162 10.9858C16.2912 11.2187 16.2287 11.4915 16.2287 11.804H14.9716C14.9716 11.2727 15.0938 10.8082 15.3381 10.4105C15.5824 10.0128 15.9176 9.70455 16.3438 9.4858C16.7699 9.2642 17.2543 9.15341 17.7969 9.15341C18.3452 9.15341 18.8281 9.26278 19.2457 9.48153C19.6662 9.69744 19.9943 9.9929 20.2301 10.3679C20.4659 10.7401 20.5838 11.1605 20.5838 11.6293C20.5838 11.9531 20.5227 12.2699 20.4006 12.5795C20.2813 12.8892 20.0724 13.2344 19.7741 13.6151C19.4759 13.9929 19.0611 14.4517 18.5298 14.9915L16.7955 16.8068V16.8707H20.7244V18H14.9801Z" fill="#475467"/>
<rect x="1" y="1" width="26" height="26" rx="13" stroke="white" stroke-width="2"/>
</svg>
